# xmcd CD database file
#
# Track frame offsets:
#	183
#	16308
#	32105
#	51980
#	76253
#	89058
#	99030
#	123948
#	138233
#	158353
#	176960
#	191990
#
# Disc length: 3148 seconds
#
# Revision: 0
# Processed by: cddbd v1.5.2PL0 Copyright (c) Steve Scherf et al.
# Submitted via: CDex 1.70beta2
#
DISCID=960c4a0c
DTITLE=Various Artist - Blues for ever
DYEAR=1992
DGENRE=Blues
TTITLE0=Three two one boogie/Memphis Slim
TTITLE1=Natural ball/Otis Rush
TTITLE2=Shake it up/Clifton Chenier
TTITLE3=Lonesome Blues/Luther Tucker
TTITLE4=Jump little children/Brownie McGhee
TTITLE5=Baby don't threat me thes way/Johnny Waters
TTITLE6=Constipation blues/Screamin Jay Hawkins
TTITLE7=Mean woman/Sonny Terry
TTITLE8=Memphis Blues/Booker T.
TTITLE9=Black president/J.C. Burris
TTITLE10=The charm/Eddy Boyd
TTITLE11=Devil woman/Sugar Blue
EXTD=YEAR: 1992
EXTT0=
EXTT1=
EXTT2=
EXTT3=
EXTT4=
EXTT5=
EXTT6=
EXTT7=
EXTT8=
EXTT9=
EXTT10=
EXTT11=
PLAYORDER=
